<svg width="30" height="32" viewBox="0 0 30 32" fill="none" xmlns="http://www.w3.org/2000/svg">
<mask id="mask0_1130_29" style="mask-type:alpha" maskUnits="userSpaceOnUse" x="0" y="0" width="30" height="32">
<rect width="29.3878" height="32" fill="#D9D9D9"/>
</mask>
<g mask="url(#mask0_1130_29)">
<path d="M13.0611 0.618393C14.0714 0.0351027 15.3161 0.0351032 16.3264 0.618394L27.2003 6.89643C28.2105 7.47972 28.8329 8.55769 28.8329 9.72427V22.2804C28.8329 23.4469 28.2105 24.5249 27.2003 25.1082L16.3264 31.3862C15.3161 31.9695 14.0714 31.9695 13.0611 31.3862L2.18718 25.1082C1.17689 24.5249 0.554528 23.4469 0.554528 22.2804V9.72427C0.554528 8.55769 1.17689 7.47972 2.18718 6.89643L13.0611 0.618393Z" fill="#3056D3"/>
<path d="M12.8479 7.40182C13.8681 6.38168 15.5221 6.38168 16.5422 7.40182L23.2969 14.1565C24.3171 15.1767 24.3171 16.8307 23.2969 17.8508L16.5422 24.6055C15.5221 25.6257 13.8681 25.6257 12.8479 24.6055L6.09323 17.8508C5.07308 16.8307 5.07308 15.1767 6.09323 14.1565L12.8479 7.40182Z" fill="white"/>
</g>
</svg>
