<svg width="196" height="44" viewBox="0 0 196 44" fill="none" xmlns="http://www.w3.org/2000/svg">
<path d="M19.9364 1.27019C21.2978 0.484197 22.9751 0.484196 24.3364 1.27019L38.9888 9.72983C40.3501 10.5158 41.1887 11.9684 41.1887 13.5403V30.4597C41.1887 32.0316 40.3501 33.4842 38.9888 34.2702L24.3364 42.7298C22.9751 43.5158 21.2978 43.5158 19.9364 42.7298L5.28408 34.2702C3.92274 33.4842 3.08412 32.0316 3.08412 30.4597V13.5403C3.08412 11.9684 3.92274 10.5158 5.28408 9.72983L19.9364 1.27019Z" fill="#3056D3"/>
<path d="M19.6494 10.4109C21.024 9.03627 23.2528 9.03627 24.6274 10.4109L33.7293 19.5129C35.1039 20.8875 35.1039 23.1162 33.7293 24.4909L24.6274 33.5928C23.2528 34.9675 21.024 34.9675 19.6494 33.5928L10.5475 24.4909C9.17293 23.1162 9.17293 20.8875 10.5475 19.5129L19.6494 10.4109Z" fill="white"/>
<path d="M55.082 33.0022V11.2422H69.0218V14.5466H59.0239V20.4541H68.0656V23.7584H59.0239V33.0022H55.082Z" fill="#111928"/>
<path d="M76.9931 33.3316C75.959 33.3316 75.0275 33.1474 74.1988 32.7791C73.3771 32.4036 72.7255 31.8511 72.2438 31.1216C71.7693 30.392 71.532 29.4924 71.532 28.4228C71.532 27.502 71.702 26.7405 72.042 26.1384C72.382 25.5364 72.8459 25.0547 73.4338 24.6934C74.0217 24.3322 74.684 24.0595 75.4207 23.8753C76.1644 23.6841 76.9329 23.5459 77.7263 23.4609C78.6825 23.3618 79.4581 23.2732 80.0531 23.1953C80.6481 23.1103 81.0802 22.9828 81.3493 22.8128C81.6256 22.6357 81.7637 22.363 81.7637 21.9947V21.9309C81.7637 21.1305 81.5264 20.5107 81.0518 20.0716C80.5773 19.6324 79.8937 19.4128 79.0012 19.4128C78.0592 19.4128 77.3119 19.6182 76.7594 20.0291C76.214 20.4399 75.8457 20.9251 75.6544 21.4847L72.0632 20.9747C72.3465 19.983 72.814 19.1543 73.4657 18.4884C74.1173 17.8155 74.9142 17.3126 75.8563 16.9797C76.7984 16.6397 77.8396 16.4697 78.98 16.4697C79.7662 16.4697 80.5489 16.5618 81.3281 16.7459C82.1072 16.9301 82.8191 17.2347 83.4637 17.6597C84.1083 18.0776 84.6253 18.6478 85.0149 19.3703C85.4116 20.0928 85.6099 20.9959 85.6099 22.0797V33.0022H81.9125V30.7603H81.785C81.5512 31.2136 81.2218 31.6386 80.7968 32.0353C80.3789 32.4249 79.8512 32.7401 79.2137 32.9809C78.5833 33.2147 77.8431 33.3316 76.9931 33.3316ZM77.9919 30.5053C78.764 30.5053 79.4333 30.353 80 30.0484C80.5666 29.7368 81.0023 29.3259 81.3068 28.8159C81.6185 28.3059 81.7743 27.7499 81.7743 27.1478V25.2247C81.6539 25.3239 81.4485 25.4159 81.1581 25.5009C80.8748 25.5859 80.556 25.6603 80.2018 25.7241C79.8477 25.7878 79.4971 25.8445 79.15 25.8941C78.8029 25.9436 78.5019 25.9861 78.2469 26.0216C77.6731 26.0995 77.1596 26.227 76.7063 26.4041C76.2529 26.5811 75.8952 26.8291 75.6332 27.1478C75.3711 27.4595 75.24 27.8632 75.24 28.3591C75.24 29.0674 75.4986 29.6022 76.0157 29.9634C76.5327 30.3247 77.1915 30.5053 77.9919 30.5053Z" fill="#111928"/>
<path d="M92.9836 27.8809L92.9729 23.2378H93.5892L99.4541 16.6822H103.948L96.7341 24.7147H95.9373L92.9836 27.8809ZM89.4774 33.0022V11.2422H93.3235V33.0022H89.4774ZM99.7197 33.0022L94.4073 25.5753L96.9997 22.8659L104.32 33.0022H99.7197Z" fill="#111928"/>
<path d="M113.065 33.3209C111.428 33.3209 110.015 32.9809 108.825 32.3009C107.642 31.6139 106.732 30.6434 106.095 29.3897C105.457 28.1289 105.138 26.6449 105.138 24.9378C105.138 23.2591 105.457 21.7857 106.095 20.5178C106.739 19.2428 107.639 18.2511 108.793 17.5428C109.948 16.8274 111.304 16.4697 112.863 16.4697C113.868 16.4697 114.818 16.6326 115.71 16.9584C116.61 17.2772 117.403 17.773 118.09 18.4459C118.784 19.1189 119.33 19.9759 119.726 21.0172C120.123 22.0514 120.321 23.2839 120.321 24.7147V25.8941H106.945V23.3016H116.634C116.627 22.5649 116.468 21.9097 116.156 21.3359C115.845 20.7551 115.409 20.2982 114.85 19.9653C114.297 19.6324 113.652 19.4659 112.916 19.4659C112.13 19.4659 111.439 19.6572 110.844 20.0397C110.249 20.4151 109.785 20.9109 109.452 21.5272C109.126 22.1364 108.96 22.8057 108.953 23.5353V25.7984C108.953 26.7476 109.126 27.5622 109.473 28.2422C109.82 28.9151 110.306 29.4322 110.929 29.7934C111.552 30.1476 112.282 30.3247 113.118 30.3247C113.677 30.3247 114.184 30.2468 114.637 30.0909C115.09 29.928 115.483 29.6907 115.816 29.3791C116.149 29.0674 116.401 28.6814 116.571 28.2209L120.162 28.6247C119.935 29.5739 119.503 30.4026 118.866 31.1109C118.235 31.8122 117.428 32.3576 116.443 32.7472C115.459 33.1297 114.332 33.3209 113.065 33.3209Z" fill="#111928"/>
<path d="M136.474 20.9959L132.968 21.3784C132.868 21.0243 132.695 20.6914 132.447 20.3797C132.206 20.068 131.88 19.8166 131.469 19.6253C131.059 19.4341 130.556 19.3384 129.961 19.3384C129.16 19.3384 128.487 19.512 127.942 19.8591C127.404 20.2061 127.138 20.6559 127.145 21.2084C127.138 21.683 127.312 22.0691 127.666 22.3666C128.027 22.6641 128.622 22.9084 129.451 23.0997L132.234 23.6947C133.779 24.0276 134.926 24.5553 135.677 25.2778C136.435 26.0003 136.817 26.9459 136.824 28.1147C136.817 29.1418 136.516 30.0484 135.921 30.8347C135.333 31.6139 134.515 32.223 133.467 32.6622C132.419 33.1014 131.214 33.3209 129.854 33.3209C127.857 33.3209 126.249 32.903 125.031 32.0672C123.812 31.2243 123.086 30.052 122.853 28.5503L126.603 28.1891C126.773 28.9257 127.134 29.4818 127.687 29.8572C128.239 30.2326 128.958 30.4203 129.844 30.4203C130.758 30.4203 131.491 30.2326 132.043 29.8572C132.603 29.4818 132.883 29.0178 132.883 28.4653C132.883 27.9978 132.702 27.6118 132.341 27.3072C131.987 27.0026 131.434 26.7689 130.683 26.6059L127.899 26.0216C126.334 25.6957 125.176 25.1468 124.425 24.3747C123.674 23.5955 123.302 22.6109 123.31 21.4209C123.302 20.4151 123.575 19.5439 124.128 18.8072C124.687 18.0634 125.463 17.4897 126.455 17.0859C127.453 16.6751 128.604 16.4697 129.908 16.4697C131.82 16.4697 133.325 16.877 134.423 17.6916C135.528 18.5061 136.212 19.6076 136.474 20.9959Z" fill="#111928"/>
<path d="M148.145 16.6822V19.6572H138.763V16.6822H148.145ZM141.08 12.7722H144.926V28.0934C144.926 28.6105 145.004 29.0072 145.16 29.2834C145.322 29.5526 145.535 29.7368 145.797 29.8359C146.059 29.9351 146.35 29.9847 146.668 29.9847C146.909 29.9847 147.129 29.967 147.327 29.9316C147.532 29.8961 147.688 29.8643 147.795 29.8359L148.443 32.8428C148.237 32.9136 147.943 32.9916 147.561 33.0766C147.185 33.1616 146.725 33.2111 146.18 33.2253C145.216 33.2536 144.349 33.1084 143.576 32.7897C142.804 32.4639 142.192 31.9609 141.738 31.2809C141.292 30.6009 141.073 29.7509 141.08 28.7309V12.7722Z" fill="#111928"/>
<path d="M158.305 33.3209C156.711 33.3209 155.33 32.9703 154.161 32.2691C152.993 31.5678 152.086 30.5868 151.442 29.3259C150.804 28.0651 150.485 26.5918 150.485 24.9059C150.485 23.2201 150.804 21.7432 151.442 20.4753C152.086 19.2074 152.993 18.2228 154.161 17.5216C155.33 16.8203 156.711 16.4697 158.305 16.4697C159.899 16.4697 161.28 16.8203 162.449 17.5216C163.618 18.2228 164.521 19.2074 165.158 20.4753C165.803 21.7432 166.125 23.2201 166.125 24.9059C166.125 26.5918 165.803 28.0651 165.158 29.3259C164.521 30.5868 163.618 31.5678 162.449 32.2691C161.28 32.9703 159.899 33.3209 158.305 33.3209ZM158.326 30.2397C159.191 30.2397 159.913 30.0024 160.494 29.5278C161.075 29.0461 161.507 28.4016 161.79 27.5941C162.081 26.7866 162.226 25.887 162.226 24.8953C162.226 23.8966 162.081 22.9934 161.79 22.1859C161.507 21.3714 161.075 20.7232 160.494 20.2416C159.913 19.7599 159.191 19.5191 158.326 19.5191C157.441 19.5191 156.704 19.7599 156.116 20.2416C155.536 20.7232 155.1 21.3714 154.81 22.1859C154.526 22.9934 154.385 23.8966 154.385 24.8953C154.385 25.887 154.526 26.7866 154.81 27.5941C155.1 28.4016 155.536 29.0461 156.116 29.5278C156.704 30.0024 157.441 30.2397 158.326 30.2397Z" fill="#111928"/>
<path d="M169.39 33.0022V16.6822H173.119V19.4022H173.289C173.586 18.4601 174.096 17.7341 174.819 17.2241C175.548 16.707 176.381 16.4484 177.316 16.4484C177.528 16.4484 177.765 16.4591 178.028 16.4803C178.297 16.4945 178.52 16.5193 178.697 16.5547V20.0928C178.534 20.0361 178.275 19.9866 177.921 19.9441C177.574 19.8945 177.238 19.8697 176.912 19.8697C176.211 19.8697 175.58 20.022 175.021 20.3266C174.468 20.6241 174.033 21.0384 173.714 21.5697C173.395 22.1009 173.236 22.7136 173.236 23.4078V33.0022H169.39Z" fill="#111928"/>
<path d="M187.805 33.3209C186.169 33.3209 184.756 32.9809 183.566 32.3009C182.383 31.6139 181.473 30.6434 180.835 29.3897C180.198 28.1289 179.879 26.6449 179.879 24.9378C179.879 23.2591 180.198 21.7857 180.835 20.5178C181.48 19.2428 182.379 18.2511 183.534 17.5428C184.688 16.8274 186.045 16.4697 187.603 16.4697C188.609 16.4697 189.558 16.6326 190.451 16.9584C191.35 17.2772 192.144 17.773 192.831 18.4459C193.525 19.1189 194.07 19.9759 194.467 21.0172C194.864 22.0514 195.062 23.2839 195.062 24.7147V25.8941H181.685V23.3016H191.375C191.368 22.5649 191.209 21.9097 190.897 21.3359C190.585 20.7551 190.15 20.2982 189.59 19.9653C189.038 19.6324 188.393 19.4659 187.656 19.4659C186.87 19.4659 186.179 19.6572 185.584 20.0397C184.989 20.4151 184.526 20.9109 184.193 21.5272C183.867 22.1364 183.7 22.8057 183.693 23.5353V25.7984C183.693 26.7476 183.867 27.5622 184.214 28.2422C184.561 28.9151 185.046 29.4322 185.669 29.7934C186.293 30.1476 187.022 30.3247 187.858 30.3247C188.418 30.3247 188.924 30.2468 189.378 30.0909C189.831 29.928 190.224 29.6907 190.557 29.3791C190.89 29.0674 191.141 28.6814 191.311 28.2209L194.902 28.6247C194.676 29.5739 194.244 30.4026 193.606 31.1109C192.976 31.8122 192.168 32.3576 191.184 32.7472C190.199 33.1297 189.073 33.3209 187.805 33.3209Z" fill="#111928"/>
</svg>
